<?xml version="1.0" encoding="UTF-8" standalone="no"?>
<!DOCTYPE svg PUBLIC "-//W3C//DTD SVG 1.1//EN" "http://www.w3.org/Graphics/SVG/1.1/DTD/svg11.dtd">
<svg width="100%" height="100%" viewBox="0 0 2583 355" version="1.1" xmlns="http://www.w3.org/2000/svg" xmlns:xlink="http://www.w3.org/1999/xlink" xml:space="preserve" xmlns:serif="http://www.serif.com/" style="fill-rule:evenodd;clip-rule:evenodd;stroke-linejoin:round;stroke-miterlimit:2;">
    <g transform="matrix(1.46742,0,0,1.46742,-898.882,-686.876)">
        <path d="M817.778,704.316L747.503,704.316L666.34,612.595L666.34,704.316L612.562,704.316L612.562,473.365L666.34,473.365L666.34,563.766L742.224,473.365L808.87,473.365L711.541,586.531L817.778,704.316Z" style="fill-rule:nonzero;"/>
        <path d="M890.693,658.785L1018.05,658.785L1018.05,704.316L838.234,704.316L838.234,473.365L1014.42,473.365L1014.42,518.565L890.693,518.565L890.693,565.415L1007.82,565.415L1007.82,608.966L890.693,608.966L890.693,658.785Z" style="fill-rule:nonzero;"/>
        <path d="M1143.42,628.102L1112.08,628.102L1112.08,704.316L1057.97,704.316L1057.97,473.365L1170.47,473.365C1187.19,473.365 1201.82,476.664 1214.35,483.263C1226.89,489.641 1236.57,498.769 1243.39,510.647C1250.21,522.524 1253.62,536.161 1253.62,551.558C1253.62,569.154 1249,584.221 1239.76,596.759C1230.74,609.296 1217.87,618.204 1201.16,623.483L1266.48,704.316L1202.15,704.316L1143.42,628.102ZM1200.17,552.218C1200.17,541.88 1196.98,533.852 1190.6,528.133C1184.44,522.414 1175.64,519.555 1164.2,519.555L1111.75,519.555L1111.75,584.551L1164.2,584.551C1175.86,584.551 1184.77,581.802 1190.93,576.303C1197.09,570.584 1200.17,562.556 1200.17,552.218Z" style="fill-rule:nonzero;"/>
        <path d="M1449.27,473.365L1503.04,473.365L1503.04,704.316L1454.54,704.316L1349.96,561.456L1350.62,623.813L1350.62,704.316L1296.84,704.316L1296.84,473.365L1345.34,473.365L1449.92,616.884L1449.27,555.187L1449.27,473.365Z" style="fill-rule:nonzero;"/>
        <rect x="1553.19" y="473.365" width="54.109" height="230.951" style="fill-rule:nonzero;"/>
        <path d="M1768.97,709.595C1744.11,709.595 1722.23,704.536 1703.31,694.418C1684.62,684.3 1670.1,670.113 1659.76,651.857C1649.64,633.601 1644.58,612.595 1644.58,588.84C1644.58,565.085 1649.75,544.08 1660.09,525.824C1670.65,507.347 1685.28,493.16 1703.97,483.263C1722.67,473.145 1744,468.086 1767.98,468.086C1802.07,468.086 1831.32,480.073 1855.74,504.048L1822.42,537.371C1807.68,523.294 1789.97,516.256 1769.3,516.256C1755.44,516.256 1743.12,519.335 1732.35,525.494C1721.79,531.432 1713.54,539.901 1707.6,550.898C1701.88,561.896 1699.02,574.543 1699.02,588.84C1699.02,603.137 1701.88,615.785 1707.6,626.782C1713.54,637.78 1721.79,646.358 1732.35,652.517C1743.12,658.456 1755.44,661.425 1769.3,661.425C1780.3,661.425 1790.85,659.445 1800.97,655.486C1811.09,651.527 1819.89,645.808 1827.37,638.33L1859.04,673.632C1834.18,697.607 1804.16,709.595 1768.97,709.595Z" style="fill-rule:nonzero;"/>
        <path d="M2042.15,473.365L2095.93,473.365L2095.93,559.542L2042.15,652.689L2042.15,611.605L1944.16,611.605L1944.16,704.316L1890.05,704.316L1890.05,473.365L1944.16,473.365L1944.16,562.776L2042.15,562.776L2042.15,473.365Z" style="fill-rule:nonzero;"/>
    </g>
    <g transform="matrix(0.174756,0,0,1,1630.53,-1062.96)">
        <path d="M4312.23,1062.96L3141.4,1417.35L2679.38,1417.35L3850.2,1062.96L4312.23,1062.96Z" style="fill:white;"/>
    </g>
    <g transform="matrix(4.41995e-18,0.0721833,-0.53113,3.25223e-17,3136.92,-67.4201)">
        <path d="M4145.56,1161.29L3234.79,1436.97L2456.39,1436.97L3756.36,1043.48L3755.91,1043.35L4535.21,1043.35L4534.76,1043.48L5834.73,1436.97L5056.33,1436.97L4145.56,1161.29ZM934.013,1417.35L5843.65,1802.59L5843.65,1954.61L934.013,1569.37L934.013,1417.35Z" style="fill:url(#_Linear1);"/>
    </g>
    <defs>
        <linearGradient id="_Linear1" x1="0" y1="0" x2="1" y2="0" gradientUnits="userSpaceOnUse" gradientTransform="matrix(-4909.64,-381.396,2806.34,-667.245,5843.65,1715.6)"><stop offset="0" style="stop-color:rgb(0,119,255);stop-opacity:1"/><stop offset="1" style="stop-color:rgb(0,197,221);stop-opacity:1"/></linearGradient>
    </defs>
</svg>
